<svg id="a" xmlns="http://www.w3.org/2000/svg" viewBox="0 0 512 512"><path d="m235.84,381.34c-140.78,0-154.76-53.65-154.76-84.86v-2.93h125.5c.97,11.38,5.85,29.59,48.44,29.59h1.3c39.01,0,46.82-9.43,46.82-19.51v-.65c0-10.08-4.55-17.88-50.39-19.51l-48.12-1.3c-97.21-2.6-119.65-37.06-119.65-75.1v-2.93c0-42.59,32.19-73.48,146.96-73.48h35.76c125.5,0,154.43,36.09,154.43,76.08v2.28h-123.55c-.98-8.78-5.53-22.43-46.49-22.43h-1.63c-37.71,0-42.92,6.5-42.92,15.28v.33c0,9.43,8.45,15.61,49.42,16.58l46.17.97c93.31,2.6,127.77,24.38,127.77,73.8v4.55c0,41.94-25.68,83.23-158.34,83.23h-36.74Z"/><path d="m271.49,0h-35.76c-69.55,0-108.77,11.35-128.88,29.76h298.3C384.01,11.97,343.77,0,271.49,0Z"/><path d="m235.03,512h36.74c71.68,0,112.12-12.06,134.15-29.76H106.07c21.35,16.84,59.88,29.76,128.96,29.76Z"/><path d="m270.92,58.38h-35.76c-85.41,0-125.08,17.11-139.79,43.42h321.25c-15.8-25.05-56.17-43.42-145.7-43.42Z"/><path d="m235.24,454.27h36.74c88.91,0,129.77-18.55,147.04-43.42H92.97c16.81,22.98,55.39,43.42,142.27,43.42Z"/></svg>